# 3ds Max Wavefront OBJ Exporter v0.97b - (c)2007 guruware
# File Created: 27.02.2018 17:19:57

#
# object factory
#

v  -0.6000 0.7000 -0.4500
v  0.1000 0.7000 -0.4500
v  0.1000 0.0500 -0.4500
v  -0.6000 0.0500 -0.4500
v  -0.6000 0.7000 0.1500
v  -0.6000 0.0500 0.1500
v  0.6000 0.0500 0.1500
v  0.6000 0.0500 -0.3500
v  0.6000 0.5500 -0.3500
v  0.6000 0.5500 0.1500
v  0.1000 0.0500 -0.3500
v  0.1000 0.5500 -0.3500
v  0.3500 0.5500 0.1500
v  0.3500 0.0500 0.1500
v  -0.3500 0.0500 0.5500
v  -0.3500 0.5500 0.5500
v  -0.3500 0.5500 0.1500
v  -0.3500 0.0500 0.1500
v  0.3500 0.0500 0.5500
v  0.3500 0.5500 0.5500
v  -0.3140 1.0035 -0.1685
v  -0.3053 1.0122 -0.1835
v  -0.3053 0.7000 -0.1835
v  -0.3140 0.7000 -0.1685
v  -0.3053 0.7000 -0.1193
v  -0.3053 1.0122 -0.1193
v  -0.3140 1.0035 -0.1343
v  -0.3140 0.7000 -0.1343
v  -0.2920 0.7000 -0.1081
v  -0.2920 1.0255 -0.1081
v  -0.2757 0.7000 -0.1022
v  -0.2757 1.0418 -0.1022
v  -0.2920 1.0255 -0.1947
v  -0.2757 1.0418 -0.2006
v  -0.2757 0.7000 -0.2006
v  -0.2920 0.7000 -0.1947
v  -0.2583 0.7000 -0.2006
v  -0.2583 1.0591 -0.2006
v  -0.2420 0.7000 -0.1947
v  -0.2420 1.0755 -0.1947
v  -0.2287 0.7000 -0.1835
v  -0.2287 1.0888 -0.1835
v  -0.2200 1.0974 -0.1685
v  -0.2200 0.7000 -0.1685
v  -0.2170 0.7000 -0.1514
v  -0.2170 1.1005 -0.1514
v  -0.2200 1.0974 -0.1343
v  -0.2200 0.7000 -0.1343
v  -0.2287 1.0888 -0.1193
v  -0.2287 0.7000 -0.1193
v  -0.2420 1.0755 -0.1081
v  -0.2420 0.7000 -0.1081
v  -0.2583 1.0591 -0.1022
v  -0.2583 0.7000 -0.1022
v  -0.3170 1.0005 -0.1514
v  -0.3170 0.7000 -0.1514
v  -0.4946 1.0035 -0.1685
v  -0.4859 1.0122 -0.1835
v  -0.4859 0.7000 -0.1835
v  -0.4946 0.7000 -0.1685
v  -0.4859 0.7000 -0.1193
v  -0.4859 1.0122 -0.1193
v  -0.4946 1.0035 -0.1343
v  -0.4946 0.7000 -0.1343
v  -0.4726 0.7000 -0.1081
v  -0.4726 1.0255 -0.1081
v  -0.4563 0.7000 -0.1022
v  -0.4563 1.0418 -0.1022
v  -0.4726 1.0255 -0.1947
v  -0.4563 1.0418 -0.2006
v  -0.4563 0.7000 -0.2006
v  -0.4726 0.7000 -0.1947
v  -0.4389 0.7000 -0.2006
v  -0.4389 1.0591 -0.2006
v  -0.4226 0.7000 -0.1947
v  -0.4226 1.0755 -0.1947
v  -0.4093 0.7000 -0.1835
v  -0.4093 1.0888 -0.1835
v  -0.4006 0.7000 -0.1685
v  -0.4006 1.0974 -0.1685
v  -0.3976 0.7000 -0.1514
v  -0.3976 1.1005 -0.1514
v  -0.4006 1.0974 -0.1343
v  -0.4006 0.7000 -0.1343
v  -0.4093 1.0888 -0.1193
v  -0.4093 0.7000 -0.1193
v  -0.4226 1.0755 -0.1081
v  -0.4226 0.7000 -0.1081
v  -0.4389 1.0591 -0.1022
v  -0.4389 0.7000 -0.1022
v  -0.4976 1.0005 -0.1514
v  -0.4976 0.7000 -0.1514
v  0.1995 0.8535 -0.1035
v  0.2082 0.8622 -0.1185
v  0.2082 0.5500 -0.1185
v  0.1995 0.5500 -0.1035
v  0.2082 0.5500 -0.0542
v  0.2082 0.8622 -0.0542
v  0.1995 0.8535 -0.0693
v  0.1995 0.5500 -0.0693
v  0.2215 0.5500 -0.0431
v  0.2215 0.8755 -0.0431
v  0.2378 0.5500 -0.0371
v  0.2378 0.8918 -0.0371
v  0.2215 0.8755 -0.1297
v  0.2378 0.8918 -0.1356
v  0.2378 0.5500 -0.1356
v  0.2215 0.5500 -0.1297
v  0.2552 0.5500 -0.1356
v  0.2552 0.9091 -0.1356
v  0.2715 0.5500 -0.1297
v  0.2715 0.9255 -0.1297
v  0.2848 0.5500 -0.1185
v  0.2848 0.9388 -0.1185
v  0.2935 0.5500 -0.1035
v  0.2935 0.9474 -0.1035
v  0.2965 0.5500 -0.0864
v  0.2965 0.9505 -0.0864
v  0.2935 0.9474 -0.0693
v  0.2935 0.5500 -0.0693
v  0.2848 0.9388 -0.0542
v  0.2848 0.5500 -0.0542
v  0.2715 0.9255 -0.0431
v  0.2715 0.5500 -0.0431
v  0.2552 0.9091 -0.0371
v  0.2552 0.5500 -0.0371
v  0.1965 0.8505 -0.0864
v  0.1965 0.5500 -0.0864
v  0.3801 0.8535 -0.1035
v  0.3888 0.8622 -0.1185
v  0.3888 0.5500 -0.1185
v  0.3801 0.5500 -0.1035
v  0.3888 0.5500 -0.0542
v  0.3888 0.8622 -0.0542
v  0.3801 0.8535 -0.0693
v  0.3801 0.5500 -0.0693
v  0.4021 0.5500 -0.0431
v  0.4021 0.8755 -0.0431
v  0.4184 0.5500 -0.0371
v  0.4184 0.8918 -0.0371
v  0.4021 0.8755 -0.1297
v  0.4184 0.8918 -0.1356
v  0.4184 0.5500 -0.1356
v  0.4021 0.5500 -0.1297
v  0.4358 0.5500 -0.1356
v  0.4358 0.9091 -0.1356
v  0.4521 0.5500 -0.1297
v  0.4521 0.9255 -0.1297
v  0.4654 0.5500 -0.1185
v  0.4654 0.9388 -0.1185
v  0.4741 0.5500 -0.1035
v  0.4741 0.9474 -0.1035
v  0.4771 0.5500 -0.0864
v  0.4771 0.9505 -0.0864
v  0.4741 0.9474 -0.0693
v  0.4741 0.5500 -0.0693
v  0.4654 0.9388 -0.0542
v  0.4654 0.5500 -0.0542
v  0.4521 0.9255 -0.0431
v  0.4521 0.5500 -0.0431
v  0.4358 0.9091 -0.0371
v  0.4358 0.5500 -0.0371
v  0.3771 0.8505 -0.0864
v  0.3771 0.5500 -0.0864
v  0.1000 0.7000 0.1500
v  0.1000 0.5500 0.1500
# 166 vertices

vn -0.5774 0.5774 -0.5774
vn 0.6254 0.4666 -0.6254
vn 0.5774 -0.5774 -0.5774
vn -0.5774 -0.5774 -0.5774
vn -0.5774 0.5774 0.5774
vn -0.5774 -0.5774 0.5774
vn 0.5774 -0.5774 0.5774
vn 0.5774 0.5774 -0.5774
vn 0.5774 0.5774 0.5774
vn -0.6743 0.3011 -0.6743
vn -0.9108 0.3445 -0.2273
vn -0.8241 0.3728 -0.4265
vn -0.5686 -0.6701 -0.4771
vn -0.6975 -0.6701 -0.2539
vn -0.5687 -0.6700 0.4772
vn -0.8241 0.3728 0.4265
vn -0.9108 0.3445 0.2273
vn -0.6976 -0.6700 0.2539
vn -0.3712 -0.6700 0.6429
vn -0.6949 0.4123 0.5892
vn -0.1289 -0.6700 0.7311
vn -0.5283 0.4648 0.7105
vn -0.6949 0.4123 -0.5891
vn -0.5283 0.4648 -0.7105
vn -0.0599 0.9387 -0.3396
vn -0.3711 -0.6701 -0.6429
vn 0.1289 -0.6700 -0.7311
vn -0.3271 0.5356 -0.7785
vn 0.3712 -0.6700 -0.6429
vn -0.0972 0.6300 -0.7705
vn 0.5687 -0.6700 -0.4772
vn 0.1429 0.7462 -0.6502
vn 0.3433 0.8571 -0.3842
vn 0.6975 -0.6701 -0.2539
vn 0.7424 -0.6699 0.0000
vn 0.4245 0.9054 -0.0000
vn 0.3433 0.8571 0.3842
vn 0.6976 -0.6699 0.2539
vn 0.1429 0.7462 0.6502
vn 0.5687 -0.6700 0.4772
vn -0.0972 0.6300 0.7705
vn 0.3712 -0.6700 0.6429
vn -0.3271 0.5356 0.7785
vn 0.1289 -0.6700 0.7311
vn -0.9429 0.3332 -0.0000
vn -0.7423 -0.6701 0.0000
vn -0.5687 -0.6700 -0.4772
vn -0.1289 -0.6700 -0.7311
vn -0.3712 -0.6700 -0.6429
vn 0.3712 -0.6701 -0.6428
vn 0.5686 -0.6701 -0.4771
vn 0.6042 0.7659 -0.2199
vn 0.7424 -0.6700 -0.0000
vn 0.6976 -0.6700 0.2539
vn -0.6975 -0.6701 0.2539
vn -0.1289 -0.6701 -0.7310
vn -0.3712 -0.6701 -0.6428
vn 0.7423 -0.6701 -0.0000
vn 0.6975 -0.6701 0.2539
vn 0.3917 0.8594 0.3287
vn -0.4624 0.8867 -0.0000
vn -0.5862 0.7816 0.2134
vn -0.3712 -0.6701 0.6428
vn -0.1289 -0.6701 0.7310
vn -0.6949 0.4123 -0.5892
vn -0.3271 0.5356 -0.7786
vn 0.5686 -0.6701 0.4772
vn -0.7423 -0.6701 -0.0000
# 68 vertex normals

vt 0.7302 0.0178 0.0000
vt 0.8637 0.0187 0.0000
vt 0.8628 0.1426 0.0000
vt 0.7294 0.1417 0.0000
vt 0.6159 0.0170 0.0000
vt 0.6150 0.1409 0.0000
vt 0.8384 0.5281 0.0000
vt 0.6735 0.5286 0.0000
vt 0.6730 0.3636 0.0000
vt 0.8380 0.3631 0.0000
vt 0.5085 0.5290 0.0000
vt 0.5081 0.3640 0.0000
vt 0.9205 0.3629 0.0000
vt 0.9209 0.5279 0.0000
vt 0.6139 0.1703 0.0000
vt 0.6146 0.3353 0.0000
vt 0.4826 0.3359 0.0000
vt 0.4819 0.1709 0.0000
vt 0.8448 0.1694 0.0000
vt 0.8455 0.3343 0.0000
vt 0.9768 0.1688 0.0000
vt 0.9775 0.3338 0.0000
vt 0.5792 0.6997 0.0000
vt 0.5743 0.7059 0.0000
vt 0.5199 0.5916 0.0000
vt 0.5262 0.5886 0.0000
vt 0.4308 0.6340 0.0000
vt 0.4853 0.7483 0.0000
vt 0.4775 0.7482 0.0000
vt 0.4245 0.6371 0.0000
vt 0.4372 0.6310 0.0000
vt 0.4940 0.7502 0.0000
vt 0.4436 0.6280 0.0000
vt 0.5032 0.7531 0.0000
vt 0.5703 0.7138 0.0000
vt 0.5668 0.7228 0.0000
vt 0.5071 0.5976 0.0000
vt 0.5135 0.5946 0.0000
vt 0.5008 0.6007 0.0000
vt 0.5635 0.7322 0.0000
vt 0.4944 0.6037 0.0000
vt 0.5600 0.7412 0.0000
vt 0.4881 0.6067 0.0000
vt 0.5559 0.7491 0.0000
vt 0.5511 0.7553 0.0000
vt 0.4817 0.6098 0.0000
vt 0.4754 0.6128 0.0000
vt 0.5453 0.7594 0.0000
vt 0.5384 0.7614 0.0000
vt 0.4690 0.6158 0.0000
vt 0.5305 0.7612 0.0000
vt 0.4626 0.6189 0.0000
vt 0.5218 0.7594 0.0000
vt 0.4563 0.6219 0.0000
vt 0.5126 0.7564 0.0000
vt 0.4499 0.6249 0.0000
vt 0.5389 0.5825 0.0000
vt 0.5919 0.6936 0.0000
vt 0.5850 0.6955 0.0000
vt 0.5326 0.5855 0.0000
vt 0.5855 0.8988 0.0000
vt 0.5807 0.9050 0.0000
vt 0.5262 0.7907 0.0000
vt 0.5326 0.7877 0.0000
vt 0.4372 0.8331 0.0000
vt 0.4917 0.9474 0.0000
vt 0.4838 0.9473 0.0000
vt 0.4308 0.8362 0.0000
vt 0.4436 0.8301 0.0000
vt 0.5004 0.9493 0.0000
vt 0.4499 0.8271 0.0000
vt 0.5096 0.9522 0.0000
vt 0.5767 0.9129 0.0000
vt 0.5732 0.9219 0.0000
vt 0.5135 0.7967 0.0000
vt 0.5199 0.7937 0.0000
vt 0.5071 0.7998 0.0000
vt 0.5698 0.9313 0.0000
vt 0.5008 0.8028 0.0000
vt 0.5663 0.9403 0.0000
vt 0.4944 0.8058 0.0000
vt 0.5623 0.9482 0.0000
vt 0.4881 0.8089 0.0000
vt 0.5574 0.9544 0.0000
vt 0.4817 0.8119 0.0000
vt 0.5516 0.9585 0.0000
vt 0.5447 0.9605 0.0000
vt 0.4754 0.8149 0.0000
vt 0.5369 0.9603 0.0000
vt 0.4690 0.8180 0.0000
vt 0.5282 0.9585 0.0000
vt 0.4626 0.8210 0.0000
vt 0.5190 0.9555 0.0000
vt 0.4563 0.8240 0.0000
vt 0.4769 0.9492 0.0000
vt 0.4245 0.8392 0.0000
vt 0.5389 0.7846 0.0000
vt 0.5914 0.8946 0.0000
vt 0.7501 0.6854 0.0000
vt 0.7453 0.6917 0.0000
vt 0.6908 0.5774 0.0000
vt 0.6971 0.5743 0.0000
vt 0.6018 0.6198 0.0000
vt 0.6563 0.7341 0.0000
vt 0.6484 0.7339 0.0000
vt 0.5954 0.6228 0.0000
vt 0.6081 0.6168 0.0000
vt 0.6650 0.7359 0.0000
vt 0.6145 0.6137 0.0000
vt 0.6742 0.7389 0.0000
vt 0.7412 0.6996 0.0000
vt 0.7377 0.7086 0.0000
vt 0.6781 0.5834 0.0000
vt 0.6844 0.5804 0.0000
vt 0.6717 0.5865 0.0000
vt 0.7344 0.7179 0.0000
vt 0.6654 0.5895 0.0000
vt 0.7309 0.7270 0.0000
vt 0.6590 0.5925 0.0000
vt 0.7269 0.7349 0.0000
vt 0.6526 0.5955 0.0000
vt 0.7220 0.7411 0.0000
vt 0.6463 0.5986 0.0000
vt 0.7162 0.7452 0.0000
vt 0.7093 0.7471 0.0000
vt 0.6399 0.6016 0.0000
vt 0.7014 0.7470 0.0000
vt 0.6336 0.6046 0.0000
vt 0.6928 0.7451 0.0000
vt 0.6272 0.6077 0.0000
vt 0.6835 0.7422 0.0000
vt 0.6209 0.6107 0.0000
vt 0.9299 0.6378 0.0000
vt 0.9222 0.6357 0.0000
vt 0.9149 0.6304 0.0000
vt 0.9088 0.6227 0.0000
vt 0.9047 0.6134 0.0000
vt 0.9031 0.6037 0.0000
vt 0.9042 0.5947 0.0000
vt 0.9079 0.5876 0.0000
vt 0.9136 0.5831 0.0000
vt 0.9208 0.5819 0.0000
vt 0.9285 0.5840 0.0000
vt 0.9359 0.5893 0.0000
vt 0.9420 0.5971 0.0000
vt 0.9460 0.6063 0.0000
vt 0.9476 0.6160 0.0000
vt 0.9465 0.6250 0.0000
vt 0.9429 0.6321 0.0000
vt 0.9371 0.6366 0.0000
vt 0.7099 0.5683 0.0000
vt 0.7628 0.6794 0.0000
vt 0.7560 0.6813 0.0000
vt 0.7035 0.5713 0.0000
vt 0.7501 0.8876 0.0000
vt 0.7453 0.8938 0.0000
vt 0.6908 0.7795 0.0000
vt 0.6971 0.7765 0.0000
vt 0.6018 0.8219 0.0000
vt 0.6563 0.9362 0.0000
vt 0.6484 0.9361 0.0000
vt 0.5954 0.8250 0.0000
vt 0.6081 0.8189 0.0000
vt 0.6650 0.9381 0.0000
vt 0.6145 0.8159 0.0000
vt 0.6742 0.9410 0.0000
vt 0.7412 0.9017 0.0000
vt 0.7377 0.9107 0.0000
vt 0.6781 0.7856 0.0000
vt 0.6844 0.7825 0.0000
vt 0.6717 0.7886 0.0000
vt 0.7344 0.9201 0.0000
vt 0.6654 0.7916 0.0000
vt 0.7309 0.9291 0.0000
vt 0.6590 0.7946 0.0000
vt 0.7269 0.9370 0.0000
vt 0.6526 0.7977 0.0000
vt 0.7220 0.9432 0.0000
vt 0.6463 0.8007 0.0000
vt 0.7162 0.9473 0.0000
vt 0.7093 0.9493 0.0000
vt 0.6399 0.8037 0.0000
vt 0.7014 0.9491 0.0000
vt 0.6336 0.8068 0.0000
vt 0.6928 0.9473 0.0000
vt 0.6272 0.8098 0.0000
vt 0.6835 0.9443 0.0000
vt 0.6209 0.8128 0.0000
vt 0.7099 0.7704 0.0000
vt 0.7628 0.8815 0.0000
vt 0.7560 0.8834 0.0000
vt 0.7035 0.7734 0.0000
vt 0.2046 0.3162 0.0000
vt 0.2117 0.3218 0.0000
vt 0.2164 0.3296 0.0000
vt 0.2182 0.3384 0.0000
vt 0.2168 0.3474 0.0000
vt 0.2124 0.3553 0.0000
vt 0.2056 0.3613 0.0000
vt 0.1972 0.3646 0.0000
vt 0.1881 0.3648 0.0000
vt 0.1796 0.3619 0.0000
vt 0.1725 0.3562 0.0000
vt 0.1678 0.3485 0.0000
vt 0.1660 0.3396 0.0000
vt 0.1674 0.3307 0.0000
vt 0.1717 0.3228 0.0000
vt 0.1785 0.3168 0.0000
vt 0.1870 0.3135 0.0000
vt 0.1960 0.3133 0.0000
vt 0.2126 0.2482 0.0000
vt 0.1925 0.0142 0.0000
vt 0.0172 0.3341 0.0000
vt 0.2919 0.4840 0.0000
vt 0.4671 0.1641 0.0000
vt 0.2169 0.2402 0.0000
vt 0.2237 0.2343 0.0000
vt 0.2322 0.2310 0.0000
vt 0.2412 0.2308 0.0000
vt 0.2498 0.2337 0.0000
vt 0.2569 0.2393 0.0000
vt 0.2616 0.2470 0.0000
vt 0.2634 0.2559 0.0000
vt 0.2620 0.2648 0.0000
vt 0.2577 0.2728 0.0000
vt 0.2509 0.2788 0.0000
vt 0.2424 0.2820 0.0000
vt 0.2334 0.2823 0.0000
vt 0.2248 0.2794 0.0000
vt 0.2177 0.2737 0.0000
vt 0.2130 0.2660 0.0000
vt 0.2112 0.2571 0.0000
vt 0.4824 0.0161 0.0000
vt 0.5674 0.1406 0.0000
vt 0.5680 0.0453 0.0000
vt 0.4822 0.0447 0.0000
vt 0.8970 0.9094 0.0000
vt 0.9273 0.9023 0.0000
vt 0.9283 0.9066 0.0000
vt 0.9500 0.9016 0.0000
vt 0.9550 0.9232 0.0000
vt 0.9442 0.9258 0.0000
vt 0.9482 0.9431 0.0000
vt 0.9179 0.9502 0.0000
vt 0.9139 0.9328 0.0000
vt 0.9030 0.9354 0.0000
vt 0.9781 0.0195 0.0000
vt 0.9779 0.0481 0.0000
vt 0.8826 0.0474 0.0000
vt 0.8819 0.1427 0.0000
vt 0.1706 0.5772 0.0000
vt 0.1648 0.5725 0.0000
vt 0.1609 0.5661 0.0000
vt 0.1594 0.5587 0.0000
vt 0.1606 0.5512 0.0000
vt 0.1641 0.5446 0.0000
vt 0.1697 0.5396 0.0000
vt 0.1767 0.5368 0.0000
vt 0.1842 0.5367 0.0000
vt 0.1912 0.5391 0.0000
vt 0.1970 0.5438 0.0000
vt 0.2009 0.5503 0.0000
vt 0.2024 0.5577 0.0000
vt 0.2013 0.5651 0.0000
vt 0.1977 0.5717 0.0000
vt 0.1921 0.5767 0.0000
vt 0.1851 0.5795 0.0000
vt 0.1777 0.5797 0.0000
vt 0.1637 0.6192 0.0000
vt 0.1652 0.6266 0.0000
vt 0.1640 0.6340 0.0000
vt 0.1605 0.6407 0.0000
vt 0.1548 0.6456 0.0000
vt 0.1479 0.6484 0.0000
vt 0.1404 0.6486 0.0000
vt 0.1334 0.6461 0.0000
vt 0.0141 0.6279 0.0000
vt 0.2026 0.7323 0.0000
vt 0.1098 0.9039 0.0000
vt 0.2606 0.9874 0.0000
vt 0.4049 0.7204 0.0000
vt 0.2541 0.6369 0.0000
vt 0.3056 0.5415 0.0000
vt 0.1172 0.4372 0.0000
vt 0.1275 0.6414 0.0000
vt 0.1237 0.6350 0.0000
vt 0.1222 0.6276 0.0000
vt 0.1233 0.6201 0.0000
vt 0.1269 0.6135 0.0000
vt 0.1325 0.6085 0.0000
vt 0.1395 0.6058 0.0000
vt 0.1469 0.6056 0.0000
vt 0.1540 0.6080 0.0000
vt 0.1598 0.6127 0.0000
vt 0.8513 0.6987 0.0000
vt 0.8590 0.7009 0.0000
vt 0.8663 0.7061 0.0000
vt 0.8724 0.7139 0.0000
vt 0.8765 0.7232 0.0000
vt 0.8781 0.7329 0.0000
vt 0.8770 0.7418 0.0000
vt 0.8733 0.7490 0.0000
vt 0.8676 0.7534 0.0000
vt 0.8604 0.7546 0.0000
vt 0.8527 0.7525 0.0000
vt 0.8453 0.7472 0.0000
vt 0.8393 0.7395 0.0000
vt 0.8352 0.7302 0.0000
vt 0.8336 0.7205 0.0000
vt 0.8347 0.7115 0.0000
vt 0.8384 0.7044 0.0000
vt 0.8441 0.6999 0.0000
vt 0.8230 0.5945 0.0000
vt 0.8307 0.5967 0.0000
vt 0.8380 0.6019 0.0000
vt 0.8441 0.6097 0.0000
vt 0.8482 0.6190 0.0000
vt 0.8498 0.6287 0.0000
vt 0.8487 0.6376 0.0000
vt 0.8450 0.6448 0.0000
vt 0.8392 0.6492 0.0000
vt 0.8321 0.6505 0.0000
vt 0.8244 0.6483 0.0000
vt 0.8170 0.6430 0.0000
vt 0.8109 0.6353 0.0000
vt 0.8069 0.6260 0.0000
vt 0.8053 0.6163 0.0000
vt 0.8064 0.6073 0.0000
vt 0.8100 0.6002 0.0000
vt 0.8158 0.5958 0.0000
vt 0.9494 0.6987 0.0000
vt 0.9572 0.7008 0.0000
vt 0.9645 0.7061 0.0000
vt 0.9706 0.7138 0.0000
vt 0.9746 0.7231 0.0000
vt 0.9762 0.7328 0.0000
vt 0.9751 0.7418 0.0000
vt 0.9715 0.7489 0.0000
vt 0.9657 0.7534 0.0000
vt 0.9585 0.7546 0.0000
vt 0.9508 0.7524 0.0000
vt 0.9435 0.7472 0.0000
vt 0.9374 0.7394 0.0000
vt 0.9333 0.7301 0.0000
vt 0.9317 0.7204 0.0000
vt 0.9329 0.7115 0.0000
vt 0.9365 0.7043 0.0000
vt 0.9423 0.6999 0.0000
# 348 texture coords

o factory
g factory
s 32
f 1/1/1 2/2/2 3/3/3 4/4/4 
s 64
f 5/5/5 1/1/1 4/4/4 6/6/6 
s 1
f 7/7/7 8/8/3 9/9/8 10/10/9 
s 8
f 8/8/3 11/11/8 12/12/10 9/9/8 
f 7/7/7 10/10/9 13/13/7 14/14/9 
s 1
f 15/15/6 16/16/5 17/17/1 18/18/5 
s 8
f 16/16/5 15/15/6 19/19/7 20/20/9 
s 1
f 20/20/9 19/19/7 14/21/9 13/22/7 
s 2
f 21/23/11 22/24/12 23/25/13 24/26/14 
f 25/27/15 26/28/16 27/29/17 28/30/18 
f 29/31/19 30/32/20 26/28/16 25/27/15 
f 30/32/20 29/31/19 31/33/21 32/34/22 
f 33/35/23 34/36/24 35/37/25 36/38/26 
f 37/39/27 35/37/25 34/36/24 38/40/28 
f 39/41/29 37/39/27 38/40/28 40/42/30 
f 41/43/31 39/41/29 40/42/30 42/44/32 
f 42/44/32 43/45/33 44/46/34 41/43/31 
f 45/47/35 44/46/34 43/45/33 46/48/36 
f 45/47/35 46/48/36 47/49/37 48/50/38 
f 48/50/38 47/49/37 49/51/39 50/52/40 
f 50/52/40 49/51/39 51/53/41 52/54/42 
f 52/54/42 51/53/41 53/55/43 54/56/44 
f 54/56/44 53/55/43 32/34/22 31/33/21 
f 28/57/18 27/58/17 55/59/45 56/60/46 
f 24/26/14 56/60/46 55/59/45 21/23/11 
f 36/38/26 23/25/13 22/24/12 33/35/23 
f 57/61/11 58/62/12 59/63/47 60/64/14 
f 61/65/15 62/66/16 63/67/17 64/68/18 
f 62/66/16 61/65/15 65/69/19 66/70/20 
f 66/70/20 65/69/19 67/71/21 68/72/22 
f 69/73/23 70/74/24 71/75/48 72/76/49 
f 73/77/27 71/75/48 70/74/24 74/78/28 
f 75/79/50 73/77/27 74/78/28 76/80/30 
f 77/81/51 75/79/50 76/80/30 78/82/32 
f 79/83/52 77/81/51 78/82/32 80/84/33 
f 81/85/53 79/83/52 80/84/33 82/86/36 
f 81/85/53 82/86/36 83/87/37 84/88/54 
f 84/88/54 83/87/37 85/89/39 86/90/40 
f 86/90/40 85/89/39 87/91/41 88/92/42 
f 88/92/42 87/91/41 89/93/43 90/94/44 
f 90/94/44 89/93/43 68/72/22 67/71/21 
f 64/68/18 63/67/17 91/95/45 92/96/46 
f 60/64/14 92/97/46 91/98/45 57/61/11 
f 72/76/49 59/63/47 58/62/12 69/73/23 
s 4
f 93/99/11 94/100/12 95/101/47 96/102/14 
f 97/103/15 98/104/16 99/105/17 100/106/55 
f 98/104/16 97/103/15 101/107/19 102/108/20 
f 102/108/20 101/107/19 103/109/21 104/110/22 
f 105/111/23 106/112/24 107/113/56 108/114/57 
f 109/115/27 107/113/56 106/112/24 110/116/28 
f 111/117/50 109/115/27 110/116/28 112/118/30 
f 113/119/31 111/117/50 112/118/30 114/120/32 
f 115/121/34 113/119/31 114/120/32 116/122/33 
f 117/123/58 115/121/34 116/122/33 118/124/36 
f 117/123/58 118/124/36 119/125/37 120/126/59 
f 120/126/59 119/125/37 121/127/39 122/128/60 
f 122/128/60 121/127/39 123/129/41 124/130/42 
f 124/130/42 123/129/41 125/131/43 126/132/44 
f 126/132/44 125/131/43 104/110/22 103/109/21 
s 1
f 116/133/33 114/134/32 112/135/30 110/136/28 106/137/24 105/138/23 94/139/12 93/140/11 127/141/45 99/142/17 98/143/16 102/144/20 104/145/22 125/146/43 123/147/41 121/148/39 119/149/37 118/150/36 
s 4
f 100/151/55 99/152/17 127/153/45 128/154/61 
f 96/102/14 128/154/61 127/153/45 93/99/11 
f 108/114/57 95/101/47 94/100/12 105/111/23 
f 129/155/11 130/156/12 131/157/47 132/158/14 
f 133/159/15 134/160/16 135/161/17 136/162/62 
f 134/160/16 133/159/15 137/163/63 138/164/20 
f 138/164/20 137/163/63 139/165/64 140/166/22 
f 141/167/65 142/168/24 143/169/48 144/170/49 
f 145/171/27 143/169/48 142/168/24 146/172/66 
f 147/173/29 145/171/27 146/172/66 148/174/30 
f 149/175/31 147/173/29 148/174/30 150/176/32 
f 151/177/34 149/175/31 150/176/32 152/178/33 
f 153/179/58 151/177/34 152/178/33 154/180/36 
f 153/179/58 154/180/36 155/181/37 156/182/59 
f 156/182/59 155/181/37 157/183/39 158/184/67 
f 158/184/67 157/183/39 159/185/41 160/186/42 
f 160/186/42 159/185/41 161/187/43 162/188/44 
f 162/188/44 161/187/43 140/166/22 139/165/64 
f 136/189/62 135/190/17 163/191/45 164/192/68 
f 132/158/14 164/192/68 163/191/45 129/155/11 
f 144/170/49 131/157/47 130/156/12 141/167/65 
f 81/193/53 84/194/54 86/195/40 88/196/42 90/197/44 67/198/21 65/199/19 61/200/15 64/201/18 92/202/46 60/203/14 59/204/47 72/205/49 71/206/48 73/207/27 75/208/50 77/209/51 79/210/52 35/211/25 2/212/2 1/213/1 5/214/5 165/215/9 2/212/2 35/211/25 37/216/27 39/217/29 41/218/31 44/219/34 45/220/35 48/221/38 50/222/40 52/223/42 54/224/44 31/225/21 29/226/19 25/227/15 28/228/18 56/229/46 24/230/14 23/231/13 36/232/26 35/211/25 79/210/52 
s 8
f 165/233/9 5/5/5 6/6/6 18/234/5 17/235/1 166/236/7 
s 2
f 4/237/4 3/238/3 11/239/8 8/240/3 7/241/7 14/242/9 19/243/7 15/244/6 18/245/5 6/246/6 
s 16
f 3/3/3 2/2/2 165/247/9 166/248/7 12/249/10 11/250/8 
s 2
f 164/251/68 132/252/14 131/253/47 144/254/49 143/255/48 145/256/27 147/257/29 149/258/31 151/259/34 153/260/58 156/261/59 158/262/67 160/263/42 162/264/44 139/265/64 137/266/63 133/267/15 136/268/62 122/269/60 124/270/42 126/271/44 103/272/21 101/273/19 97/274/15 100/275/55 128/276/61 12/277/10 166/278/7 17/279/1 16/280/5 20/281/9 13/282/7 10/283/9 9/284/8 12/277/10 128/276/61 96/285/14 95/286/47 108/287/57 107/288/56 109/289/27 111/290/50 113/291/31 115/292/34 117/293/58 120/294/59 122/269/60 136/268/62 
s 1
f 27/295/17 26/296/16 30/297/20 32/298/22 53/299/43 51/300/41 49/301/39 47/302/37 46/303/36 43/304/33 42/305/32 40/306/30 38/307/28 34/308/24 33/309/23 22/310/12 21/311/11 55/312/45 
f 63/313/17 62/314/16 66/315/20 68/316/22 89/317/43 87/318/41 85/319/39 83/320/37 82/321/36 80/322/33 78/323/32 76/324/30 74/325/28 70/326/24 69/327/23 58/328/12 57/329/11 91/330/45 
f 135/331/17 134/332/16 138/333/20 140/334/22 161/335/43 159/336/41 157/337/39 155/338/37 154/339/36 152/340/33 150/341/32 148/342/30 146/343/66 142/344/24 141/345/65 130/346/12 129/347/11 163/348/45 
# 89 polygons

