# 3ds Max Wavefront OBJ Exporter v0.97b - (c)2007 guruware
# File Created: 01.09.2018 01:43:56

mtllib hwan_wonder.mtl

#
# object Object01
#

v  -0.0068 0.6405 0.0046
v  -0.0870 0.5570 0.0849
v  0.0735 0.5570 0.0849
v  0.0735 0.5570 -0.0756
v  -0.0870 0.5570 -0.0756
v  -0.0870 0.5509 0.0849
v  0.0735 0.5509 0.0849
v  0.0735 0.5509 -0.0756
v  -0.0870 0.5509 -0.0756
v  -0.0870 0.5542 0.0854
v  -0.1673 0.4707 0.1657
v  0.1537 0.4707 0.1657
v  0.0735 0.5542 0.0854
v  0.1537 0.4707 -0.1553
v  0.0735 0.5542 -0.0751
v  -0.1673 0.4707 -0.1553
v  -0.0870 0.5542 -0.0751
v  -0.2475 0.3872 0.2459
v  0.2339 0.3872 0.2459
v  0.2339 0.3872 -0.2355
v  -0.2475 0.3872 -0.2355
v  -0.3277 0.3037 0.3261
v  0.3142 0.3037 0.3261
v  0.3142 0.3037 -0.3158
v  -0.3277 0.3037 -0.3158
v  -0.4080 0.2203 0.4064
v  0.3944 0.2203 0.4064
v  0.3944 0.2203 -0.3960
v  -0.4080 0.2203 -0.3960
v  -0.4882 0.1368 0.4866
v  0.4747 0.1368 0.4866
v  0.4747 0.1368 -0.4763
v  -0.4882 0.1368 -0.4763
v  -0.5685 0.0533 0.5669
v  0.5549 0.0533 0.5669
v  0.5549 0.0533 -0.5565
v  -0.5685 0.0533 -0.5565
v  -0.0068 0.0533 0.0052
# 38 vertices

vn 0.0000 1.0000 -0.0000
vn -0.6695 0.3218 0.6695
vn 0.6695 0.3218 0.6695
vn 0.6695 0.3218 -0.6695
vn -0.6695 0.3218 -0.6695
vn -0.7071 0.0000 0.7071
vn 0.7071 0.0000 0.7071
vn 0.7071 0.0000 -0.7071
vn -0.7071 0.0000 -0.7071
vn -0.5145 0.6860 0.5145
vn 0.5145 0.6860 0.5145
vn 0.5145 0.6860 -0.5145
vn -0.5145 0.6860 -0.5145
vn -0.6751 -0.2973 0.6751
vn 0.6751 -0.2973 0.6751
vn 0.6751 -0.2973 -0.6751
vn -0.6751 -0.2973 -0.6751
vn 0.0000 -1.0000 -0.0000
# 18 vertex normals

vt 0.5000 1.0000 0.0000
vt 0.4286 0.8571 0.0000
vt 0.5714 0.8571 0.0000
vt 0.3571 0.7143 0.0000
vt 0.6429 0.7143 0.0000
vt 0.2857 0.5714 0.0000
vt 0.7143 0.5714 0.0000
vt 0.2143 0.4286 0.0000
vt 0.7857 0.4286 0.0000
vt 0.1429 0.2857 0.0000
vt 0.8571 0.2857 0.0000
vt 0.0714 0.1429 0.0000
vt 0.9286 0.1429 0.0000
vt 0.0000 0.0000 0.0000
vt 1.0000 0.0000 0.0000
vt 0.0000 1.0000 0.0000
vt 0.5000 0.5000 0.0000
vt 1.0000 1.0000 0.0000
# 18 texture coords

o Object01
g Object01
usemtl Material__61
s 4
f 1/1/1 2/2/2 3/3/3 
s 2
f 1/1/1 3/2/3 4/3/4 
s 16
f 1/1/1 4/2/4 5/3/5 
s 32
f 1/1/1 5/2/5 2/3/2 
s off
f 6/2/6 7/3/7 3/3/3 2/2/2 
f 7/2/7 8/3/8 4/3/4 3/2/3 
f 8/2/8 9/3/9 5/3/5 4/2/4 
f 9/2/9 6/3/6 2/3/2 5/2/5 
s 4
f 10/2/10 11/4/10 12/5/11 13/3/11 
s 2
f 13/2/11 12/4/11 14/5/12 15/3/12 
s 16
f 15/2/12 14/4/12 16/5/13 17/3/13 
s 32
f 17/2/13 16/4/13 11/5/10 10/3/10 
s 4
f 11/4/10 18/6/10 19/7/11 12/5/11 
s 2
f 12/4/11 19/6/11 20/7/12 14/5/12 
s 16
f 14/4/12 20/6/12 21/7/13 16/5/13 
s 32
f 16/4/13 21/6/13 18/7/10 11/5/10 
s 4
f 18/6/10 22/8/10 23/9/11 19/7/11 
s 2
f 19/6/11 23/8/11 24/9/12 20/7/12 
s 16
f 20/6/12 24/8/12 25/9/13 21/7/13 
s 32
f 21/6/13 25/8/13 22/9/10 18/7/10 
s 4
f 22/8/10 26/10/10 27/11/11 23/9/11 
s 2
f 23/8/11 27/10/11 28/11/12 24/9/12 
s 16
f 24/8/12 28/10/12 29/11/13 25/9/13 
s 32
f 25/8/13 29/10/13 26/11/10 22/9/10 
s 4
f 26/10/10 30/12/10 31/13/11 27/11/11 
s 2
f 27/10/11 31/12/11 32/13/12 28/11/12 
s 16
f 28/10/12 32/12/12 33/13/13 29/11/13 
s 32
f 29/10/13 33/12/13 30/13/10 26/11/10 
s 4
f 30/12/10 34/14/14 35/15/15 31/13/11 
s 2
f 31/12/11 35/14/15 36/15/16 32/13/12 
s 16
f 32/12/12 36/14/16 37/15/17 33/13/13 
s 32
f 33/12/13 37/14/17 34/15/14 30/13/10 
s 8
f 34/16/14 38/17/18 35/18/15 
f 35/18/15 38/17/18 36/15/16 
f 36/15/16 38/17/18 37/14/17 
f 37/14/17 38/17/18 34/16/14 
# 28 polygons - 8 triangles

