# 3ds Max Wavefront OBJ Exporter v0.97b - (c)2007 guruware
# File Created: 18.02.2018 21:14:36

mtllib hextile.mtl

#
# object Hextile
#

v  0.0000 0.0500 -1.0000
v  0.8660 0.0500 -0.5000
v  0.8660 -0.0500 -0.5000
v  0.0000 -0.0500 -1.0000
v  0.8660 0.0500 0.5000
v  0.8660 -0.0500 0.5000
v  0.0000 0.0500 1.0000
v  0.0000 -0.0500 1.0000
v  -0.8660 0.0500 0.5000
v  -0.8660 -0.0500 0.5000
v  -0.8660 0.0500 -0.5000
v  -0.8660 -0.0500 -0.5000
# 12 vertices

vn 0.5000 0.0000 -0.8660
vn 1.0000 0.0000 0.0000
vn 0.5000 0.0000 0.8660
vn -0.5000 0.0000 0.8660
vn 0.0000 1.0000 -0.0000
vn -1.0000 0.0000 0.0000
vn -0.5000 0.0000 -0.8660
vn 0.0000 -1.0000 0.0000
# 8 vertex normals

vt 0.5678 0.0404 0.0000
vt 0.4717 0.0412 0.0000
vt 0.4717 0.0316 0.0000
vt 0.5677 0.0308 0.0000
vt 0.3756 0.0419 0.0000
vt 0.3755 0.0323 0.0000
vt 0.2795 0.0427 0.0000
vt 0.2794 0.0330 0.0000
vt 0.1834 0.0434 0.0000
vt 0.1833 0.0338 0.0000
vt 0.5850 0.7334 0.0000
vt 0.4417 0.9816 0.0000
vt 0.1550 0.9816 0.0000
vt 0.1550 0.4851 0.0000
vt 0.0117 0.7334 0.0000
vt 0.4417 0.4851 0.0000
vt 0.7600 0.0389 0.0000
vt 0.6639 0.0397 0.0000
vt 0.6638 0.0301 0.0000
vt 0.7599 0.0293 0.0000
vt 0.8218 0.5647 0.0000
vt 0.5351 0.5647 0.0000
vt 0.3918 0.3164 0.0000
vt 0.8218 0.0681 0.0000
vt 0.5351 0.0681 0.0000
vt 0.9651 0.3164 0.0000
# 26 texture coords

o Hextile
g Hextile
usemtl None
s off
f 1/1/1 2/2/1 3/3/1 4/4/1 
f 2/2/2 5/5/2 6/6/2 3/3/2 
f 5/5/3 7/7/3 8/8/3 6/6/3 
f 7/7/4 9/9/4 10/10/4 8/8/4 
f 1/11/5 11/12/5 9/13/5 5/14/5 
f 9/13/5 7/15/5 5/14/5 
f 2/16/5 1/11/5 5/14/5 
f 9/17/6 11/18/6 12/19/6 10/20/6 
f 11/18/7 1/1/7 4/4/7 12/19/7 
f 3/21/8 6/22/8 8/23/8 12/24/8 
f 8/23/8 10/25/8 12/24/8 
f 4/26/8 3/21/8 12/24/8 
# 8 polygons - 4 triangles

