# 3ds Max Wavefront OBJ Exporter v0.97b - (c)2007 guruware
# File Created: 03.09.2018 20:12:50

mtllib hextile.mtl

#
# object Cylinder
#

v  0.0000 0.0500 -1.0000
v  0.8660 0.0500 -0.5000
v  0.8660 -0.0500 -0.5000
v  0.0000 -0.0500 -1.0000
v  0.8660 0.0500 0.5000
v  0.8660 -0.0500 0.5000
v  0.0000 0.0500 1.0000
v  0.0000 -0.0500 1.0000
v  -0.8660 0.0500 0.5000
v  -0.8660 -0.0500 0.5000
v  -0.8660 0.0500 -0.5000
v  -0.8660 -0.0500 -0.5000
# 12 vertices

vn 0.5000 0.0000 -0.8660
vn 1.0000 0.0000 0.0000
vn 0.5000 0.0000 0.8660
vn -0.5000 0.0000 0.8660
vn 0.0000 1.0000 -0.0000
vn -1.0000 0.0000 0.0000
vn -0.5000 0.0000 -0.8660
vn 0.0000 -1.0000 0.0000
# 8 vertex normals

vt 0.6029 0.2118 0.0211
vt 0.8636 0.0613 0.0211
vt 0.8786 0.0874 -0.0211
vt 0.6180 0.2379 -0.0211
vt 0.7983 0.0501 0.0230
vt 0.4973 0.0501 0.0230
vt 0.4973 0.0200 -0.0230
vt 0.7983 0.0200 -0.0230
vt 0.3449 0.7611 0.0211
vt 0.0843 0.6106 0.0211
vt 0.0993 0.5846 -0.0211
vt 0.3600 0.7351 -0.0211
vt 0.8557 0.0598 0.0211
vt 0.5950 0.2103 0.0211
vt 0.5800 0.1843 -0.0211
vt 0.8406 0.0338 -0.0211
vt 0.9800 0.7167 0.0460
vt 0.8295 0.9774 -0.0460
vt 0.5285 0.9774 -0.0460
vt 0.5285 0.4560 -0.0460
vt 0.3780 0.7167 0.0460
vt 0.8295 0.4560 -0.0460
vt 0.1485 0.5432 0.0230
vt 0.4495 0.5432 0.0230
vt 0.4495 0.5733 -0.0230
vt 0.1485 0.5733 -0.0230
vt 0.0947 0.5432 0.0211
vt 0.3554 0.6937 0.0211
vt 0.3403 0.7198 -0.0211
vt 0.0797 0.5693 -0.0211
vt 0.4715 0.5413 0.0460
vt 0.1705 0.5413 0.0460
vt 0.0200 0.2807 -0.0460
vt 0.4715 0.0200 0.0460
vt 0.1705 0.0200 0.0460
vt 0.6220 0.2807 -0.0460
# 36 texture coords

o Cylinder
g Cylinder
usemtl None
s off
f 1/1/1 2/2/1 3/3/1 4/4/1 
f 2/5/2 5/6/2 6/7/2 3/8/2 
f 5/9/3 7/10/3 8/11/3 6/12/3 
f 7/13/4 9/14/4 10/15/4 8/16/4 
f 1/17/5 11/18/5 9/19/5 5/20/5 
f 9/19/5 7/21/5 5/20/5 
f 2/22/5 1/17/5 5/20/5 
f 9/23/6 11/24/6 12/25/6 10/26/6 
f 11/27/7 1/28/7 4/29/7 12/30/7 
f 3/31/8 6/32/8 8/33/8 12/34/8 
f 8/33/8 10/35/8 12/34/8 
f 4/36/8 3/31/8 12/34/8 
# 8 polygons - 4 triangles

