# 3ds Max Wavefront OBJ Exporter v0.97b - (c)2007 guruware
# File Created: 03.09.2018 20:34:45

mtllib ice.mtl

#
# object Cylinder
#

v  0.8660 0.0500 -0.5000
v  0.8660 -0.0500 -0.5000
v  0.0000 -0.0500 -1.0000
v  0.0000 0.0500 -1.0000
v  0.8660 0.0500 0.5000
v  0.8660 -0.0500 0.5000
v  0.0000 0.0500 1.0000
v  0.0000 -0.0500 1.0000
v  -0.8660 0.0500 0.5000
v  -0.8660 -0.0500 0.5000
v  -0.8660 0.0500 -0.5000
v  -0.4522 0.0500 -0.6962
v  -0.0522 0.0736 0.4630
v  -0.4433 0.0833 0.6939
v  0.4932 0.0058 -0.6507
v  -0.8660 -0.0500 -0.5000
v  -0.0163 0.0801 -0.8050
v  -0.4912 0.0257 -0.3147
v  -0.0260 0.0922 -0.1236
v  0.3997 0.0865 0.0892
v  -0.3489 0.0500 -0.0121
v  0.2589 0.0672 -0.1787
v  0.0885 0.0500 -0.2160
v  -0.3013 0.0500 -0.2352
v  -0.1521 0.0500 -0.2933
v  -0.0505 0.0500 0.2325
v  0.2207 0.0500 0.2517
v  -0.2566 0.0500 0.1704
v  0.6739 -0.0039 -0.4245
v  0.5278 0.0865 -0.3596
v  0.8074 0.0500 -0.0544
v  -0.6199 0.0445 -0.3774
v  -0.7883 0.0255 -0.2105
v  0.1064 -0.0059 0.7259
v  0.1514 0.0381 0.8268
v  -0.0163 0.0051 0.6299
v  -0.0566 0.0252 0.3949
v  0.2345 0.0500 0.3746
v  -0.2808 0.0500 0.3752
v  -0.6378 0.0691 -0.5146
v  0.1617 0.0500 0.1518
v  0.0658 0.0962 -0.5084
v  -0.0986 0.0500 -0.5331
# 43 vertices

vn 0.5000 0.0000 -0.8660
vn 1.0000 0.0000 0.0000
vn 0.5000 0.0000 0.8660
vn -0.5000 0.0000 0.8660
vn 0.0000 1.0000 -0.0000
vn -0.0000 1.0000 -0.0000
vn 0.0000 0.8429 0.5381
vn -0.3044 0.7933 0.5272
vn -0.3101 0.7845 0.5371
vn -1.0000 0.0000 0.0000
vn -0.5000 0.0000 -0.8660
vn 0.0000 -1.0000 0.0000
vn 0.2254 0.9655 -0.1301
vn -0.2940 0.9406 -0.1697
vn -0.2443 0.9594 -0.1410
vn -0.0708 0.9833 0.1679
vn -0.1931 0.9616 -0.1949
vn 0.0102 0.9998 0.0161
vn -0.0004 0.9095 -0.4158
vn -0.0735 0.9792 -0.1890
vn 0.1913 0.9705 0.1469
vn -0.0000 1.0000 0.0000
vn 0.3725 0.8571 -0.3559
vn -0.2835 0.9582 -0.0373
vn -0.0231 0.9956 0.0906
vn 0.0951 0.9901 0.1033
vn -0.2567 0.9226 -0.2878
vn 0.0438 0.9973 0.0581
vn -0.0601 0.9513 0.3024
vn 0.0735 0.9359 0.3446
vn 0.1351 0.9887 -0.0656
vn -0.1930 0.9615 0.1955
vn -0.0942 0.9755 -0.1986
vn 0.0178 0.9995 0.0264
vn 0.1664 0.9768 -0.1346
vn 0.1667 0.8449 -0.5084
vn -0.2233 0.9662 0.1289
vn 0.4720 0.8690 -0.1488
vn -0.0283 0.9884 0.1494
vn 0.0000 0.9451 0.3268
vn 0.1307 0.9910 0.0305
vn -0.1106 0.9683 0.2238
vn 0.0459 0.9916 0.1207
vn 0.2506 0.9472 -0.2002
vn 0.0666 0.9920 -0.1068
vn 0.4139 0.8956 -0.1633
vn -0.1249 0.9920 -0.0194
vn -0.4068 0.9132 -0.0221
vn 0.2756 0.9428 0.1876
vn -0.1397 0.9897 -0.0298
vn -0.0347 0.9927 0.1153
vn 0.1297 0.9621 0.2399
vn -0.0792 0.9874 -0.1371
vn -0.1667 0.9289 -0.3307
vn -0.4954 0.8671 0.0524
vn 0.3013 0.9535 -0.0000
vn -0.1630 0.9853 -0.0519
vn 0.0955 0.9835 0.1540
vn -0.0738 0.9862 0.1481
vn 0.0443 0.8126 -0.5811
vn -0.0499 0.8153 -0.5769
vn -0.1346 0.9771 0.1649
vn 0.4205 0.9007 0.1097
vn -0.2490 0.9669 -0.0556
vn -0.0701 0.9804 0.1843
vn 0.2364 0.9614 0.1408
# 66 vertex normals

vt 0.8070 0.6886 0.0105
vt 0.8204 0.7119 -0.0105
vt 0.5876 0.8463 -0.0105
vt 0.5742 0.8230 0.0105
vt 0.5860 0.3953 0.0115
vt 0.5860 0.3684 -0.0115
vt 0.8548 0.3684 -0.0115
vt 0.8548 0.3953 0.0115
vt 0.5860 0.0433 0.0105
vt 0.5994 0.0200 -0.0105
vt 0.8322 0.1544 -0.0105
vt 0.8187 0.1777 0.0105
vt 0.5994 0.3519 0.0105
vt 0.5860 0.3286 -0.0105
vt 0.8188 0.1942 -0.0105
vt 0.8322 0.2175 0.0105
vt 0.5694 0.2644 0.0234
vt 0.4295 0.4979 -0.0234
vt 0.4849 0.3859 -0.0234
vt 0.1596 0.4896 -0.0234
vt 0.1661 0.0273 -0.0234
vt 0.1741 0.2716 -0.0234
vt 0.0200 0.2644 0.0234
vt 0.1059 0.3765 -0.0234
vt 0.4461 0.0200 -0.0234
vt 0.4789 0.1270 -0.0234
vt 0.8430 0.8628 0.0115
vt 0.8430 0.8897 -0.0115
vt 0.5742 0.8897 -0.0115
vt 0.5742 0.8628 0.0115
vt 0.8204 0.6488 0.0105
vt 0.8070 0.6721 -0.0105
vt 0.5742 0.5377 -0.0105
vt 0.5876 0.5144 0.0105
vt 0.4232 0.9800 0.0229
vt 0.1544 0.9800 0.0229
vt 0.0200 0.7472 -0.0229
vt 0.4232 0.5144 0.0229
vt 0.1544 0.5144 0.0229
vt 0.5576 0.7472 -0.0229
vt 0.5143 0.2677 -0.0234
vt 0.3811 0.3944 -0.0234
vt 0.3328 0.2668 -0.0234
vt 0.2770 0.1545 -0.0234
vt 0.3019 0.3522 -0.0234
vt 0.3478 0.1912 -0.0234
vt 0.3583 0.2358 -0.0234
vt 0.3609 0.3407 -0.0234
vt 0.3770 0.3018 -0.0234
vt 0.2391 0.2723 -0.0234
vt 0.2338 0.2017 -0.0234
vt 0.2534 0.3256 -0.0234
vt 0.4208 0.0770 -0.0234
vt 0.3995 0.1211 -0.0234
vt 0.3198 0.0395 -0.0234
vt 0.3973 0.4296 -0.0234
vt 0.3516 0.4737 -0.0234
vt 0.1011 0.2354 -0.0234
vt 0.0713 0.2212 -0.0234
vt 0.1264 0.2679 -0.0234
vt 0.1957 0.2731 -0.0234
vt 0.2012 0.1970 -0.0234
vt 0.1996 0.3319 -0.0234
vt 0.4346 0.4356 -0.0234
vt 0.2600 0.2171 -0.0234
vt 0.4337 0.2449 -0.0234
vt 0.4388 0.2890 -0.0234
# 67 texture coords

o Cylinder
g Cylinder
usemtl None
s off
f 1/1/1 2/2/1 3/3/1 4/4/1 
f 5/5/2 6/6/2 2/7/2 1/8/2 
f 7/9/3 8/10/3 6/11/3 5/12/3 
f 9/13/4 10/14/4 8/15/4 7/16/4 
f 4/17/5 11/18/5 12/19/6 
f 9/20/5 5/21/5 13/22/7 
f 9/20/5 7/23/5 14/24/8 
f 1/25/5 4/17/5 15/26/9 
f 11/27/10 16/28/10 10/29/10 9/30/10 
f 4/31/11 3/32/11 16/33/11 11/34/11 
f 2/35/12 6/36/12 8/37/12 16/38/12 
f 8/37/12 10/39/12 16/38/12 
f 3/40/12 2/35/12 16/38/12 
f 17/41/13 5/21/13 4/17/13 
f 9/20/14 17/41/14 4/17/14 18/42/15 
f 19/43/16 5/21/16 20/44/16 
f 9/20/17 19/43/17 21/45/17 
f 22/46/18 5/21/18 17/41/18 
f 19/43/19 22/46/19 23/47/19 
f 24/48/20 19/43/20 25/49/20 
f 9/20/21 24/48/21 17/41/21 
f 26/50/22 5/21/22 27/51/22 
f 9/20/6 26/50/6 28/52/6 
f 29/53/23 4/17/23 30/54/23 
f 1/25/24 29/53/24 31/55/24 
f 32/56/25 11/18/25 33/57/25 
f 4/17/26 32/56/26 18/42/26 
f 34/58/27 7/23/27 35/59/27 
f 9/20/28 34/58/28 36/60/28 
f 37/61/29 5/21/29 38/62/29 
f 9/20/30 37/61/30 39/63/30 
f 15/26/31 4/17/31 29/53/31 
f 1/25/32 15/26/32 29/53/32 
f 12/19/33 11/18/33 40/64/33 
f 4/17/34 12/19/34 32/56/34 
f 14/24/35 7/23/35 34/58/35 
f 9/20/36 14/24/36 34/58/36 
f 30/54/37 4/17/37 5/21/37 
f 29/53/38 30/54/38 5/21/38 
f 36/60/39 34/58/39 5/21/39 
f 9/20/40 36/60/40 5/21/40 
f 18/42/41 32/56/41 9/20/41 
f 41/65/42 5/21/42 19/43/42 
f 26/50/43 41/65/43 19/43/43 
f 20/44/44 5/21/44 22/46/44 
f 19/43/45 20/44/45 22/46/45 
f 42/66/46 22/46/46 17/41/46 
f 19/43/47 42/66/47 17/41/47 
f 43/67/48 19/43/48 17/41/48 
f 24/48/49 43/67/49 17/41/49 
f 21/45/50 19/43/50 24/48/50 
f 9/20/6 21/45/6 24/48/6 
f 28/52/51 26/50/51 19/43/51 
f 9/20/52 28/52/52 19/43/52 
f 35/59/53 7/23/53 5/21/53 
f 34/58/54 35/59/54 5/21/54 
f 31/55/55 29/53/55 5/21/55 
f 1/25/6 31/55/6 5/21/6 
f 33/57/56 11/18/56 9/20/56 
f 32/56/57 33/57/57 9/20/57 
f 39/63/58 37/61/58 26/50/58 
f 9/20/6 39/63/6 26/50/6 
f 38/62/5 5/21/5 26/50/5 
f 37/61/59 38/62/59 26/50/59 
f 13/22/60 5/21/60 37/61/60 
f 9/20/61 13/22/61 37/61/61 
f 27/51/5 5/21/5 41/65/5 
f 26/50/5 27/51/5 41/65/5 
f 23/47/62 22/46/62 42/66/62 
f 19/43/63 23/47/63 42/66/63 
f 25/49/64 19/43/64 43/67/64 
f 24/48/5 25/49/5 43/67/5 
f 40/64/65 11/18/65 32/56/65 
f 12/19/66 40/64/66 32/56/66 
# 8 polygons - 66 triangles

